<svg width="1574" height="1392" viewBox="0 0 1574 1392" fill="none" xmlns="http://www.w3.org/2000/svg">
<path d="M1445.04 1279.07H127.921V528.102C127.921 472.988 172.603 428.226 227.78 428.226H1345.25C1400.35 428.226 1445.11 472.915 1445.11 528.102V1279.07H1445.04Z" fill="#808080"/>
<path d="M1445.04 1291.82H127.921C120.851 1291.82 115.166 1286.14 115.166 1279.07V528.102C115.166 465.99 165.678 415.469 227.78 415.469H1345.25C1407.35 415.469 1457.86 465.99 1457.86 528.102V1279.07C1457.79 1286.14 1452.11 1291.82 1445.04 1291.82ZM140.677 1266.31H1432.35V528.102C1432.35 480.06 1393.28 440.984 1345.25 440.984H227.707C179.673 440.984 140.604 480.06 140.604 528.102L140.677 1266.31Z" fill="#000072"/>
<g opacity="0.5">
<path d="M158.899 542.682C158.899 494.64 197.968 455.565 246.002 455.565H1363.47C1379.8 455.565 1395.03 460.084 1408.15 467.958C1392.26 451.409 1369.96 440.984 1345.25 440.984H227.707C179.673 440.984 140.604 480.06 140.604 528.102V1266.31H158.826L158.899 542.682Z" fill="white"/>
</g>
<g opacity="0.2">
<path d="M1345.25 428.299H1059.09C1055.59 460.741 821.393 1177.08 127.921 1242.91V1279.07H1445.11V528.102C1445.04 472.988 1400.35 428.299 1345.25 428.299Z" fill="#000072"/>
</g>
<g opacity="0.5">
<path d="M1335.05 530.872H272.315C245.128 530.872 223.042 552.962 223.042 580.154V1180.58C223.042 1207.77 245.128 1229.86 272.315 1229.86H1335.05C1362.23 1229.86 1384.32 1207.77 1384.32 1180.58V580.154C1384.39 552.962 1362.23 530.872 1335.05 530.872Z" fill="white"/>
</g>
<path d="M1317.84 1211.78H255.113C232.445 1211.78 214.077 1193.41 214.077 1170.73V570.239C214.077 547.567 232.445 529.196 255.113 529.196H1317.92C1340.59 529.196 1358.95 547.567 1358.95 570.239V1170.66C1358.88 1193.41 1340.51 1211.78 1317.84 1211.78Z" fill="#80DEEA"/>
<path d="M1317.84 1222.71H255.113C226.468 1222.71 203.143 1199.38 203.143 1170.73V570.239C203.143 541.589 226.468 518.26 255.113 518.26H1317.92C1346.56 518.26 1369.89 541.589 1369.89 570.239V1170.66C1369.81 1199.38 1346.56 1222.71 1317.84 1222.71ZM255.113 540.131C238.495 540.131 225.01 553.618 225.01 570.239V1170.66C225.01 1187.28 238.495 1200.77 255.113 1200.77H1317.92C1334.54 1200.77 1348.02 1187.28 1348.02 1170.66V570.239C1348.02 553.618 1334.54 540.131 1317.92 540.131H255.113Z" fill="#000072"/>
<mask id="mask0_394_1450" style="mask-type:luminance" maskUnits="userSpaceOnUse" x="225" y="540" width="1124" height="661">
<path d="M1347.95 570.239C1347.95 553.618 1334.46 540.131 1317.84 540.131H255.114C238.495 540.131 225.01 553.618 225.01 570.239V1170.66C225.01 1187.28 238.495 1200.77 255.114 1200.77H1317.92C1334.54 1200.77 1348.02 1187.28 1348.02 1170.66V570.239H1347.95V570.239Z" fill="white"/>
</mask>
<g mask="url(#mask0_394_1450)">
<path opacity="0.5" d="M262.694 1300.86L117.353 1196.54L760.02 300.793L905.362 405.116L262.694 1300.86Z" fill="url(#paint0_linear_394_1450)"/>
</g>
<mask id="mask1_394_1450" style="mask-type:luminance" maskUnits="userSpaceOnUse" x="225" y="540" width="1124" height="661">
<path d="M1347.95 570.239C1347.95 553.618 1334.46 540.131 1317.84 540.131H255.114C238.495 540.131 225.01 553.618 225.01 570.239V1170.66C225.01 1187.28 238.495 1200.77 255.114 1200.77H1317.92C1334.54 1200.77 1348.02 1187.28 1348.02 1170.66V570.239H1347.95V570.239Z" fill="white"/>
</mask>
<g mask="url(#mask1_394_1450)">
<path opacity="0.5" d="M-7.79901 1232.99L-72.7437 1186.41L569.924 290.66L634.868 337.245L-7.79901 1232.99Z" fill="url(#paint1_linear_394_1450)"/>
</g>
<mask id="mask2_394_1450" style="mask-type:luminance" maskUnits="userSpaceOnUse" x="225" y="540" width="1124" height="661">
<path d="M1347.95 570.239C1347.95 553.618 1334.46 540.131 1317.84 540.131H255.114C238.495 540.131 225.01 553.618 225.01 570.239V1170.66C225.01 1187.28 238.495 1200.77 255.114 1200.77H1317.92C1334.54 1200.77 1348.02 1187.28 1348.02 1170.66V570.239H1347.95V570.239Z" fill="white"/>
</mask>
<g mask="url(#mask2_394_1450)">
<path opacity="0.5" d="M877.445 1500.61L812.5 1454.03L1455.17 558.283L1520.11 604.868L877.445 1500.61Z" fill="url(#paint2_linear_394_1450)"/>
</g>
<g opacity="0.2">
<path d="M247.096 1200.4V599.983C247.096 577.311 265.464 558.94 288.132 558.94H1350.94C1353.19 558.94 1355.31 559.158 1357.5 559.523C1352.76 542.099 1336.87 529.196 1317.92 529.196H255.113C232.445 529.196 214.077 547.567 214.077 570.239V1170.66C214.077 1191.07 229.019 1207.99 248.553 1211.12C247.606 1207.77 247.096 1204.2 247.096 1200.4Z" fill="#000072"/>
</g>
<path d="M1472.01 1378.58H100.952C52.1891 1378.58 12.7559 1339.06 12.7559 1290.37C12.7559 1278.92 22.0857 1269.59 33.5294 1269.59H1539.57C1551.02 1269.59 1560.35 1278.92 1560.35 1290.37C1560.27 1339.06 1520.77 1378.58 1472.01 1378.58Z" fill="#E0E0E0"/>
<path d="M1472.01 1391.33H100.952C45.2644 1391.33 0 1345.99 0 1290.37C0 1271.85 15.0153 1256.83 33.5292 1256.83H1539.57C1558.09 1256.83 1573.1 1271.85 1573.1 1290.37C1573.03 1346.06 1527.69 1391.33 1472.01 1391.33ZM33.4563 1282.35C29.0101 1282.35 25.4385 1285.92 25.4385 1290.37C25.4385 1331.99 59.3321 1365.82 100.879 1365.82H1472.01C1513.63 1365.82 1547.45 1331.92 1547.45 1290.37C1547.45 1285.92 1543.87 1282.35 1539.43 1282.35H33.4563Z" fill="#000072"/>
<g opacity="0.8">
<path d="M50.9498 1308.59C50.9498 1304.14 54.5214 1300.57 58.9677 1300.57H1546.72C1547.15 1297.22 1547.52 1293.86 1547.52 1290.37C1547.52 1285.92 1543.95 1282.35 1539.5 1282.35H33.4563C29.0101 1282.35 25.4385 1285.92 25.4385 1290.37C25.4385 1321.35 44.244 1348.03 70.9945 1359.62C58.6032 1346.14 50.9498 1328.27 50.9498 1308.59Z" fill="white"/>
</g>
<g opacity="0.2">
<path d="M1184.67 1272.87C1184.67 1272.87 1151.66 1398.41 45.1187 1352.19L71.0673 1376.17H1520.48L1552.99 1340.6L1566.18 1294.38L1558.96 1273.38L1184.67 1272.87Z" fill="#000072"/>
</g>
<g opacity="0.5">
<path d="M751.419 486.621C762.498 484.58 773.504 483.486 784.583 482.757C795.663 481.955 806.669 481.664 817.748 481.664C828.827 481.664 839.834 481.955 850.913 482.757C861.992 483.486 872.999 484.58 884.078 486.621C872.999 488.662 861.992 489.756 850.913 490.485C839.834 491.287 828.827 491.578 817.748 491.578C806.669 491.578 795.663 491.287 784.583 490.485C773.577 489.756 762.498 488.662 751.419 486.621Z" fill="white"/>
<path d="M715.265 499.889C722.592 499.889 728.531 493.949 728.531 486.621C728.531 479.293 722.592 473.353 715.265 473.353C707.939 473.353 702 479.293 702 486.621C702 493.949 707.939 499.889 715.265 499.889Z" fill="white"/>
</g>
<path d="M744.859 483.34C755.938 478.018 766.944 475.321 778.023 473.353C789.103 471.457 800.109 470.582 811.188 470.582C822.267 470.582 833.274 471.457 844.353 473.28C855.432 475.248 866.438 477.945 877.518 483.34C866.438 488.735 855.432 491.359 844.353 493.401C833.274 495.296 822.267 496.171 811.188 496.098C800.109 496.098 789.103 495.223 778.023 493.328C766.944 491.359 755.865 488.662 744.859 483.34Z" fill="#000072"/>
<path d="M708.633 496.608C715.959 496.608 721.899 490.668 721.899 483.34C721.899 476.012 715.959 470.072 708.633 470.072C701.306 470.072 695.367 476.012 695.367 483.34C695.367 490.668 701.306 496.608 708.633 496.608Z" fill="#000072"/>
<path d="M940.859 1318.94H632.171C610.45 1318.94 592.811 1301.3 592.811 1279.58V1269.52H980.219V1279.58C980.146 1301.37 962.58 1318.94 940.859 1318.94Z" fill="#C0C0C0"/>
<path d="M940.859 1328.06H632.171C605.421 1328.06 583.7 1306.33 583.7 1279.58V1269.52C583.7 1264.49 587.782 1260.4 592.811 1260.4H980.219C985.248 1260.4 989.33 1264.49 989.33 1269.52V1279.58C989.257 1306.33 967.536 1328.06 940.859 1328.06ZM601.922 1278.7V1279.65C601.922 1296.34 615.48 1309.9 632.171 1309.9H940.859C957.55 1309.9 971.108 1296.34 971.108 1279.65V1278.7H601.922Z" fill="#000072"/>
<g opacity="0.2">
<path d="M1358.66 962.306C1358.66 962.306 1356.55 1235.25 779.335 1203.9L1320.47 1211.78L1355.24 1190.34L1358.66 1178.24V962.306Z" fill="#000072"/>
</g>
<g opacity="0.2">
<path d="M933.643 1272.87C933.643 1272.87 870.885 1315.81 616.573 1309.17L624.81 1317.41H941.879L964.985 1307.5L981.531 1284.39V1264.56L933.643 1272.87Z" fill="#000072"/>
</g>
<path d="M1209.38 1209.15H369.55V71.0065C369.55 38.8567 395.645 12.7578 427.789 12.7578H1151.15C1183.29 12.7578 1209.38 38.8567 1209.38 71.0065V1209.15Z" fill="white"/>
<path d="M1209.38 1221.91H369.55C362.48 1221.91 356.794 1216.22 356.794 1209.15V71.0066C356.794 31.8582 388.647 0 427.789 0H1151.15C1190.29 0 1222.14 31.8582 1222.14 71.0066V1209.15C1222.14 1216.22 1216.38 1221.91 1209.38 1221.91ZM382.306 1196.39H1196.63V71.0066C1196.63 45.9283 1176.22 25.5157 1151.15 25.5157H427.789C402.715 25.5157 382.306 45.9283 382.306 71.0066V1196.39Z" fill="#000072"/>
<path d="M792.382 723.115C958.397 723.115 1092.98 588.51 1092.98 422.467C1092.98 256.424 958.397 121.819 792.382 121.819C626.368 121.819 491.786 256.424 491.786 422.467C491.786 588.51 626.368 723.115 792.382 723.115Z" fill="#29B6F6"/>
<path d="M792.383 733.977C620.582 733.977 480.853 594.224 480.853 422.394C480.853 250.564 620.582 110.811 792.383 110.811C964.183 110.811 1103.91 250.564 1103.91 422.394C1103.91 594.224 964.11 733.977 792.383 733.977ZM792.383 132.755C632.681 132.755 502.719 262.739 502.719 422.467C502.719 582.195 632.681 712.18 792.383 712.18C952.084 712.18 1082.05 582.195 1082.05 422.467C1082.05 262.739 952.084 132.755 792.383 132.755Z" fill="#000072"/>
<g opacity="0.2">
<path d="M897.854 140.92C989.622 192.388 1051.65 290.515 1051.65 403.294C1051.65 569.292 917.097 703.942 751.054 703.942C713.953 703.942 678.383 697.162 645.51 684.842C688.952 709.191 738.954 723.115 792.237 723.115C958.206 723.115 1092.83 588.538 1092.83 422.467C1092.98 293.576 1011.85 183.64 897.854 140.92Z" fill="#000072"/>
</g>
<g opacity="0.5">
<path d="M520.942 426.112C520.942 266.384 650.904 136.4 810.605 136.4C826.714 136.4 842.531 137.785 857.983 140.336C836.918 135.452 814.978 132.755 792.383 132.755C632.682 132.755 502.719 262.739 502.719 422.467C502.719 566.084 607.753 685.571 745.004 708.243C616.792 678.353 520.942 563.241 520.942 426.112Z" fill="white"/>
</g>
<path d="M1063.24 859.66H495.139C489.089 859.66 484.206 854.776 484.206 848.725C484.206 842.674 489.089 837.79 495.139 837.79H1063.24C1069.29 837.79 1074.17 842.674 1074.17 848.725C1074.17 854.776 1069.29 859.66 1063.24 859.66Z" fill="#000072"/>
<path d="M1063.24 965.368H495.139C489.089 965.368 484.206 960.484 484.206 954.433C484.206 948.382 489.089 943.498 495.139 943.498H1063.24C1069.29 943.498 1074.17 948.382 1074.17 954.433C1074.17 960.484 1069.29 965.368 1063.24 965.368Z" fill="#000072"/>
<path d="M805.576 1061.16H495.066C489.016 1061.16 484.133 1056.28 484.133 1050.23C484.133 1044.18 489.016 1039.29 495.066 1039.29H805.576C811.625 1039.29 816.509 1044.18 816.509 1050.23C816.509 1056.28 811.625 1061.16 805.576 1061.16Z" fill="#000072"/>
<path d="M590.624 354.449C590.624 354.449 569.924 358.095 561.906 384.995C557.532 399.722 559.282 415.541 565.55 429.611C573.933 448.201 591.499 472.624 626.267 472.624C626.267 472.624 626.267 390.099 626.267 382.59C626.267 375.081 590.624 354.449 590.624 354.449Z" fill="#FFE0B2"/>
<path d="M626.267 481.736C595.727 481.736 571.236 464.532 557.241 433.329C549.806 416.708 548.348 398.628 553.159 382.371C562.707 350.44 588 345.628 589.021 345.41C591.134 345.045 593.321 345.41 595.143 346.503C635.305 369.759 635.305 378.726 635.305 382.517V472.551C635.378 477.654 631.297 481.736 626.267 481.736ZM589.458 364.364C584.72 366.333 575.245 372.165 570.58 387.62C567.008 399.649 568.101 413.209 573.787 425.893C580.638 441.203 593.54 459.137 617.083 462.855V384.339C614.095 380.548 602.141 371.946 589.458 364.364Z" fill="#000072"/>
<path d="M994.068 354.449C994.068 354.449 1014.77 358.095 1022.79 384.995C1027.16 399.722 1025.41 415.541 1019.14 429.611C1010.76 448.201 993.193 472.624 958.425 472.624C958.425 472.624 958.425 390.099 958.425 382.59C958.425 375.081 994.068 354.449 994.068 354.449Z" fill="#FFE0B2"/>
<path d="M958.425 481.737C953.396 481.737 949.314 477.654 949.314 472.624V382.59C949.314 378.799 949.314 369.832 989.476 346.576C991.298 345.483 993.485 345.118 995.599 345.483C996.692 345.701 1021.91 350.513 1031.46 382.444C1036.34 398.628 1034.89 416.708 1027.38 433.402C1013.53 464.605 988.966 481.737 958.425 481.737ZM967.536 384.339V462.855C991.08 459.137 1003.98 441.203 1010.83 425.894C1016.52 413.282 1017.61 399.649 1014.04 387.62C1009.38 372.092 999.899 366.333 995.162 364.364C982.625 371.946 970.671 380.548 967.536 384.339Z" fill="#000072"/>
<path d="M953.906 480.06C952.813 484.507 945.524 512.72 924.604 541.152C894.428 582.196 851.569 604.504 797.266 607.493C795.59 607.638 792.674 607.784 791.362 607.784C791.289 607.784 791.216 607.784 791.216 607.784C791.143 607.784 791.071 607.784 791.071 607.784C789.759 607.857 786.843 607.638 785.312 607.565C730.645 604.576 687.713 582.123 657.537 540.787C636.763 512.355 629.547 484.58 628.527 480.133V373.04L626.194 232.12L645.656 205.292L725.762 168.695H812.865L867.386 180.724L935.246 203.032L956.384 232.193L954.052 373.04V480.06H953.906Z" fill="#FFE0B2"/>
<g opacity="0.5">
<path d="M771.973 605.597C773.504 605.743 776.42 605.889 777.732 605.816C777.805 605.816 777.878 605.816 777.878 605.816C777.951 605.816 778.023 605.816 778.023 605.816C779.335 605.889 782.251 605.67 783.927 605.524C838.23 602.535 881.089 580.227 911.266 539.183C911.994 538.163 912.723 537.142 913.452 536.121C931.383 510.606 940.567 479.987 940.567 448.785V370.925L942.9 230.079L921.762 200.918L853.901 178.61L807.908 168.477H812.573L867.094 180.505L934.955 202.813L956.093 231.974L953.76 372.821V480.06C952.667 484.507 945.378 512.72 924.459 541.152C894.282 582.196 851.423 604.504 797.12 607.493C795.444 607.638 792.528 607.784 791.216 607.784C791.143 607.784 791.071 607.784 791.071 607.784C790.998 607.784 790.925 607.784 790.925 607.784C789.613 607.857 786.697 607.638 785.167 607.565C776.566 607.128 768.256 606.107 760.238 604.722C764.174 605.014 768.037 605.378 771.973 605.597Z" fill="white"/>
</g>
<g opacity="0.2">
<path d="M826.568 332.069C826.786 331.777 827.151 331.485 827.442 331.34C849.309 317.78 881.454 317.998 894.282 318.655C900.624 319.019 906.309 320.696 911.193 323.612C927.884 333.818 924.823 350.002 924.677 350.731C924.386 352.117 923.365 353.21 922.053 353.648C921.689 353.72 921.397 353.793 921.033 353.793C920.012 353.793 918.992 353.356 918.263 352.627C898.291 331.485 835.242 353.356 834.586 353.575C833.565 353.939 832.472 353.866 831.524 353.283C826.859 350.659 824.089 347.305 823.361 343.295C822.267 337.318 826.13 332.579 826.568 332.069Z" fill="#000072"/>
</g>
<path d="M833.347 340.525C833.347 340.525 899.093 317.342 921.033 340.525C921.033 340.525 923.876 326.309 909.225 317.415C904.706 314.645 899.385 313.26 894.064 312.968C880.944 312.239 850.257 312.166 829.411 325.07C829.484 325.07 821.684 334.11 833.347 340.525Z" fill="#AE7C5B"/>
<path d="M920.96 345.993C919.502 345.993 918.044 345.41 916.951 344.243C900.988 327.33 852.444 339.505 835.096 345.628C833.638 346.139 831.962 345.993 830.65 345.264C824.235 341.692 822.194 337.172 821.684 334.037C820.445 327.33 824.818 322.008 825.329 321.425C825.693 320.988 826.13 320.623 826.568 320.331C848.872 306.553 881.454 306.699 894.355 307.428C900.988 307.792 906.965 309.542 912.067 312.677C929.707 323.466 926.499 340.817 926.354 341.546C925.989 343.514 924.459 345.191 922.49 345.701C921.98 345.92 921.47 345.993 920.96 345.993ZM833.274 329.153C832.836 329.882 832.253 331.121 832.472 332.214C832.618 333.089 833.347 333.891 834.148 334.474C845.228 330.902 887.795 318.363 913.525 329.007C912.14 326.601 909.953 324.122 906.455 322.008C902.956 319.894 898.729 318.655 893.845 318.363C882.037 317.78 852.881 317.561 833.274 329.153Z" fill="#000072"/>
<g opacity="0.5">
<path d="M905.361 322.518C901.644 320.258 897.125 318.946 892.023 318.655C880.287 317.998 851.423 317.853 831.378 329.153C831.597 328.642 831.816 328.278 832.034 327.913C852.079 315.884 881.891 316.103 893.918 316.759C899.02 317.051 903.539 318.363 907.257 320.623C913.161 324.195 915.712 328.788 916.732 332.506C915.712 331.923 914.546 331.34 913.452 330.902C911.994 328.059 909.516 325.07 905.361 322.518Z" fill="white"/>
</g>
<g opacity="0.2">
<path d="M679.695 321.717C684.506 318.8 690.191 317.124 696.606 316.759C709.434 316.03 741.579 315.884 763.445 329.444C763.81 329.663 764.101 329.882 764.32 330.173C764.757 330.684 768.621 335.422 767.6 341.4C766.871 345.483 764.101 348.836 759.437 351.388C758.489 351.898 757.396 351.971 756.375 351.679C755.719 351.461 692.67 329.517 672.698 350.732C671.969 351.533 670.949 351.898 669.928 351.898C669.564 351.898 669.199 351.825 668.908 351.752C667.523 351.388 666.502 350.221 666.284 348.836C666.065 348.18 663.004 331.923 679.695 321.717Z" fill="#000072"/>
</g>
<path d="M757.541 340.525C757.541 340.525 691.795 317.343 669.855 340.525C669.855 340.525 667.013 326.31 681.663 317.416C686.183 314.645 691.503 313.26 696.824 312.969C709.944 312.24 740.631 312.167 761.477 325.07C761.405 325.07 769.131 334.11 757.541 340.525Z" fill="#AE7C5B"/>
<path d="M669.855 345.993C669.345 345.993 668.835 345.92 668.324 345.774C666.356 345.191 664.899 343.587 664.461 341.619C664.315 340.89 661.108 323.539 678.748 312.75C683.85 309.615 689.754 307.865 696.46 307.501C709.434 306.772 742.016 306.626 764.247 320.404C764.757 320.696 765.122 321.061 765.486 321.498C765.997 322.081 770.297 327.403 769.131 334.11C768.548 337.245 766.58 341.765 760.165 345.337C758.78 346.066 757.177 346.212 755.719 345.701C738.371 339.578 689.827 327.403 673.864 344.316C672.844 345.41 671.386 345.993 669.855 345.993ZM702.655 324.851C725.033 324.851 748.94 331.996 756.812 334.547C757.614 333.891 758.343 333.089 758.489 332.287C758.707 331.267 758.124 330.027 757.687 329.226C738.007 317.634 708.851 317.853 697.116 318.509C692.305 318.801 688.077 319.967 684.506 322.154C681.007 324.268 678.821 326.747 677.436 329.153C684.797 326.018 693.617 324.851 702.655 324.851Z" fill="#000072"/>
<g opacity="0.5">
<path d="M756.375 334.401C756.74 332.652 755.719 330.756 755.136 329.809C735.091 317.78 705.28 317.998 693.253 318.655C689.681 318.873 686.401 319.602 683.486 320.769C683.558 320.696 683.631 320.696 683.704 320.623C687.422 318.363 691.941 317.051 697.043 316.759C708.997 316.103 738.882 315.884 758.926 327.913C759.582 328.861 760.53 330.756 760.165 332.506C759.874 333.891 758.926 335.203 757.177 336.37C756.74 336.224 756.302 336.078 755.792 335.932C756.011 335.422 756.229 334.912 756.375 334.401Z" fill="white"/>
</g>
<path d="M791.727 623.458C791.362 623.458 790.998 623.458 790.633 623.458C788.155 623.458 784.802 623.239 784.073 623.166C642.449 615.366 613.22 483.996 612.928 482.684C612.783 482.101 612.71 481.445 612.71 480.789V372.967L610.377 230.079C610.377 228.11 610.96 226.215 612.127 224.611L661.327 156.593C663.076 154.261 665.773 152.802 668.689 152.802H913.671C916.586 152.802 919.356 154.188 921.033 156.593L970.233 224.611C971.399 226.215 971.982 228.11 971.982 230.079L969.65 373.112V480.789C969.65 481.445 969.577 482.028 969.431 482.684C969.14 483.996 939.838 615.366 798.068 623.166C797.558 623.239 794.132 623.458 791.727 623.458ZM791.143 605.232C791.362 605.232 791.508 605.232 791.727 605.232C793.039 605.232 795.444 605.087 796.902 605.014C920.304 598.234 948.658 491.505 951.355 479.841V373.039L953.614 232.922L908.86 171.174H673.208L628.454 232.922L630.713 372.894V479.914C633.41 491.578 661.764 598.307 785.021 605.087C786.77 605.232 789.613 605.378 790.706 605.305C790.998 605.232 791.07 605.232 791.143 605.232Z" fill="#000072"/>
<g opacity="0.2">
<path d="M625.903 457.241L626.121 285.557C626.121 285.557 626.413 285.411 626.923 285.12L626.049 231.974L645.51 205.146L659.869 198.585L641.137 224.465L642.011 276.444C660.088 264.707 687.786 242.399 692.524 212.947C692.524 212.947 752.512 308.23 858.056 311.948L831.67 257.271L922.199 304.439L918.409 270.466L961.778 317.634L962.726 361.958L932.549 311.073L930.654 326.163L872.197 297.877L883.495 335.568C883.495 335.568 732.686 324.268 698.719 252.605C698.719 252.605 687.422 294.087 644.052 297.877L642.594 310.854L643.469 365.458V443.39C643.469 474.373 652.58 504.846 670.293 530.216C671.021 531.237 671.75 532.257 672.479 533.278C702.655 574.614 745.587 597.067 800.255 600.056C801.785 600.202 804.701 600.348 806.013 600.275C806.086 600.275 806.159 600.275 806.159 600.275H806.305C807.617 600.348 810.532 600.129 812.209 599.983C835.242 598.744 856.161 593.933 875.039 585.768C852.589 598.598 826.568 605.889 797.193 607.492C795.517 607.638 792.601 607.784 791.289 607.784C791.216 607.784 791.143 607.784 791.143 607.784C791.071 607.784 790.998 607.784 790.998 607.784C789.686 607.857 786.77 607.638 785.239 607.565C730.572 604.576 687.64 582.122 657.464 540.787C636.69 512.355 629.474 484.58 628.454 480.132V435.589L625.903 457.241Z" fill="#000072"/>
</g>
<path d="M963.6 470.218C961.195 475.977 962.58 384.266 963.236 342.056C963.454 328.715 958.571 315.811 949.533 305.97L919.356 273.091V305.241L830.941 256.98L859.441 315.01C859.441 315.01 734.508 297.149 694.273 212.801C694.273 212.801 666.138 285.12 625.976 285.12L616.865 464.021L569.778 289.129C569.778 289.129 541.642 144.419 666.211 120.361C666.211 120.361 706.3 63.0602 781.668 59.7067C802.077 58.8319 822.34 62.8415 841.292 70.5691C861.555 78.88 901.79 92.1482 951.501 92.1482C951.501 92.1482 1007.77 152.438 991.663 192.607C991.809 192.68 1031.9 305.387 963.6 470.218Z" fill="#E3724B"/>
<g opacity="0.5">
<path d="M621.457 280.891L618.687 289.275C613.074 306.188 610.304 323.904 610.596 341.692L612.054 441.13L624.153 295.399L621.457 280.891Z" fill="white"/>
</g>
<g opacity="0.5">
<path d="M691.212 207.333C691.212 207.333 648.061 275.205 621.457 280.891C621.457 280.891 678.966 278.048 691.212 207.333Z" fill="white"/>
</g>
<g opacity="0.5">
<path d="M834.513 275.205L838.303 295.982C838.303 295.982 734.581 271.487 698.792 207.333C698.792 207.333 722.336 276.153 810.969 300.648L856.234 313.989L834.513 275.205Z" fill="white"/>
</g>
<g opacity="0.5">
<path d="M913.671 271.414L912.213 274.84C909.881 280.235 903.612 282.641 898.291 280.235L832.618 250.637L919.356 305.313L913.671 271.414Z" fill="white"/>
</g>
<g opacity="0.5">
<path d="M782.032 66.268C800.838 65.3932 819.935 68.9654 838.813 76.693C839.105 76.7659 839.396 76.9117 839.615 77.0575C846.248 73.704 858.129 73.4853 870.885 77.0575C883.859 80.7026 894.064 87.3367 897.781 93.825C913.015 96.6682 930.144 98.6365 948.585 98.7823C957.915 109.426 998.369 158.27 985.613 190.201C985.03 191.659 984.957 193.336 985.54 194.867C985.613 195.086 987.071 199.387 988.893 207.26C992.829 217.831 993.777 226.288 993.777 227.09C993.777 227.527 993.412 228.038 992.902 228.475C998.952 269.009 1001.87 343.587 968.848 437.995C968.848 434.059 968.848 429.685 968.848 424.873C1004.71 307.282 985.103 224.247 979.928 206.094C968.775 180.724 953.687 167.529 953.687 167.529C966.151 173.142 974.752 181.891 980.729 191.003C986.269 159.291 950.553 116.206 941.806 106.291C926.135 106.145 911.484 104.687 898.073 102.5C893.918 108.989 878.975 110.592 862.648 106C846.758 101.553 835.096 92.6585 834.367 85.0767C833.565 84.7851 832.836 84.4206 832.107 84.129C813.229 76.4014 794.132 72.9021 775.327 73.704C724.231 75.964 689.754 104.614 674.302 120.726C683.996 108.989 721.242 68.9654 782.032 66.268Z" fill="white"/>
</g>
<path d="M963.309 479.549C962.725 479.549 962.142 479.476 961.559 479.404C953.687 477.8 953.614 471.895 953.323 456.148C953.177 447.91 953.104 436.246 953.25 421.374C953.396 394.837 953.833 363.489 954.27 341.838C954.489 330.829 950.48 320.258 942.972 312.093L928.686 296.492V305.241C928.686 308.448 927.01 311.437 924.24 313.041C921.47 314.718 918.044 314.718 915.201 313.187L852.006 278.704L867.896 310.927C869.354 313.989 869.062 317.561 867.094 320.331C865.126 323.102 861.773 324.487 858.42 323.977C853.464 323.248 743.838 306.772 695.439 232.849C684.797 253.991 663.732 287.453 634.941 293.285L626.194 464.386C625.976 468.833 622.55 472.478 618.031 472.988C613.584 473.499 609.43 470.655 608.263 466.281L561.177 291.389C561.104 291.171 561.104 290.952 561.031 290.733C560.739 289.202 553.742 252.241 562.562 211.707C574.297 157.76 608.409 123.35 661.181 111.977C671.021 99.5112 711.767 53.583 781.449 50.4482C802.587 49.5004 823.871 53.4371 844.863 62.0396C863.96 69.8401 903.175 82.9625 951.646 82.9625C954.197 82.9625 956.603 83.9831 958.279 85.8785C960.685 88.4301 1015.57 147.991 1001.43 192.68C1007.63 212.655 1035.4 320.696 972.055 473.571C970.597 477.144 967.026 479.549 963.309 479.549ZM919.429 263.905C921.907 263.905 924.385 264.926 926.135 266.894L956.311 299.773C966.953 311.364 972.638 326.455 972.42 342.129C971.837 376.612 971.545 402.929 971.399 422.394C1014.33 287.307 983.572 196.69 983.207 195.669C982.479 193.555 982.551 191.295 983.353 189.254C994.141 162.28 963.309 119.122 947.564 101.261C897.854 100.532 857.692 87.1179 837.938 79.0258C819.424 71.444 800.619 68.0176 782.178 68.8195C712.131 71.8814 674.156 125.027 673.791 125.537C672.406 127.506 670.365 128.818 668.033 129.255C555.564 151.053 577.14 278.194 578.743 287.088L610.815 406.064L617.01 284.609C617.229 279.798 621.238 275.934 626.121 275.934C653.892 275.934 678.748 227.892 685.964 209.375C687.276 206.021 690.483 203.688 694.127 203.615C697.845 203.469 701.125 205.511 702.655 208.791C731.447 269.3 808.345 294.014 843.187 302.325L822.85 260.916C821.101 257.344 821.83 253.043 824.745 250.345C827.588 247.575 831.961 246.992 835.387 248.887L910.318 289.785V273.018C910.318 269.227 912.65 265.874 916.149 264.488C917.242 264.124 918.336 263.905 919.429 263.905Z" fill="#000072"/>
<g opacity="0.5">
<path d="M688.734 144.565C688.734 144.565 670.657 143.544 659.723 134.577C635.305 139.462 615.625 149.522 600.756 164.54C616.427 145.002 638.731 132.39 667.523 126.777C668.179 126.631 668.835 126.412 669.418 126.048C668.908 126.631 668.543 127.068 668.106 127.579L668.324 127.506L688.734 144.565Z" fill="white"/>
</g>
<path d="M871.395 465.261C871.541 466.937 871.687 468.614 871.687 470.364C871.687 512.574 835.971 546.765 791.872 546.765C747.774 546.765 712.058 512.574 712.058 470.364C712.058 468.614 712.204 466.937 712.35 465.261H871.395Z" fill="#8D6E63"/>
<path d="M870.301 465.625C869.645 478.091 866.73 489.829 862.138 500.4H723.866C719.274 489.829 716.359 478.091 715.703 465.625H870.301Z" fill="white"/>
<path d="M791.872 554.055C743.838 554.055 704.769 516.511 704.769 470.364C704.769 468.76 704.842 467.229 704.988 465.698L705.061 464.823C705.352 461.032 708.487 458.043 712.35 458.043H871.395C875.258 458.043 878.392 461.032 878.684 464.823L878.757 465.771C878.902 467.302 878.975 468.833 878.975 470.437C878.975 516.511 839.907 554.055 791.872 554.055ZM719.347 472.551C720.586 509.658 752.585 539.475 791.799 539.475C831.014 539.475 863.085 509.658 864.252 472.551H719.347Z" fill="#000072"/>
<path d="M863.45 508.71H724.158C720.149 508.71 716.869 505.43 716.869 501.42C716.869 497.41 720.149 494.13 724.158 494.13H863.45C867.459 494.13 870.739 497.41 870.739 501.42C870.739 505.43 867.459 508.71 863.45 508.71Z" fill="#000072"/>
<path d="M674.885 391.63C674.885 391.63 713.662 360.063 762.352 394.327C762.352 394.327 759.728 373.404 729.989 366.041C715.848 362.542 700.76 364.656 688.879 373.04C682.902 377.341 677.509 383.246 674.885 391.63Z" fill="#000072"/>
<path d="M723.939 416.125C733.399 416.125 741.068 406.431 741.068 394.473C741.068 382.515 733.399 372.821 723.939 372.821C714.479 372.821 706.81 382.515 706.81 394.473C706.81 406.431 714.479 416.125 723.939 416.125Z" fill="#000072"/>
<path d="M910.172 391.63C910.172 391.63 871.395 360.063 822.705 394.327C822.705 394.327 825.329 373.404 855.067 366.041C869.208 362.542 884.296 364.656 896.177 373.04C902.154 377.341 907.621 383.246 910.172 391.63Z" fill="#000072"/>
<path d="M861.19 416.125C870.65 416.125 878.319 406.431 878.319 394.473C878.319 382.515 870.65 372.821 861.19 372.821C851.73 372.821 844.061 382.515 844.061 394.473C844.061 406.431 851.73 416.125 861.19 416.125Z" fill="#000072"/>
<path d="M987.727 212.655C986.123 208.281 983.718 203.397 981.312 198.95C978.834 194.43 976.064 189.983 972.93 185.9C969.796 181.818 966.37 177.808 962.361 174.527C958.352 171.247 953.833 168.477 948.585 166.8C954.052 166.946 959.591 168.404 964.766 170.664C970.014 172.924 974.752 176.058 979.344 179.412C983.936 182.838 988.164 186.629 992.173 190.712C996.255 194.867 999.972 198.877 1003.69 203.907L1003.76 203.98C1006.82 208.062 1005.95 213.822 1001.87 216.883C997.785 219.945 992.027 219.071 988.966 214.988C988.456 214.259 988.018 213.457 987.727 212.655Z" fill="#000072"/>
<path d="M667.596 123.423C667.596 123.423 670.438 131.88 689.244 145.075L667.596 123.423Z" fill="#FF7043"/>
<path d="M676.27 120.507C675.905 119.851 675.978 120.288 675.905 120.288C675.905 120.434 675.832 120.653 675.905 120.871C675.905 121.309 676.051 121.746 676.124 122.257C676.342 123.277 676.707 124.371 677.144 125.464C678.019 127.651 679.112 129.911 680.351 132.098C682.903 136.545 685.964 140.847 689.317 145.075C684.215 143.325 679.112 141.357 674.156 138.732C671.605 137.42 669.126 135.962 666.648 134.213C665.409 133.338 664.17 132.317 662.931 131.224C662.348 130.64 661.692 130.057 661.109 129.328C660.817 129.036 660.453 128.599 660.161 128.162C659.797 127.578 659.578 127.506 658.995 126.193C657.391 121.382 660.015 116.279 664.753 114.675C669.491 113.144 674.666 115.768 676.27 120.507Z" fill="#000072"/>
<g opacity="0.2">
<path d="M700.688 87.9927C700.688 87.9927 681.809 209.156 828.827 262.01L859.951 310.125C859.951 310.125 744.931 295.034 699.667 215.863C699.667 215.863 661.109 291.972 624.809 288.838L623.862 313.843C623.862 313.843 585.668 331.923 587.49 354.522C587.49 354.522 514.892 159.364 665.701 119.778L700.688 87.9927Z" fill="#000072"/>
</g>
<g opacity="0.15">
<path d="M866.511 473.207L772.338 479.039C767.454 479.331 767.017 486.329 771.755 487.277C796.391 492.307 833.201 498.139 864.616 495.879L859.878 502.514L718.254 500.764L712.787 462.928L870.229 465.771L869.864 471.311L866.511 473.207Z" fill="#000072"/>
</g>
<g opacity="0.2">
<path d="M562.999 386.454C562.999 386.454 581.659 428.81 606.368 424.144L618.614 474.082C618.614 474.155 550.754 445.869 562.999 386.454Z" fill="#000072"/>
</g>
<path d="M827.588 265.436C826.932 265.072 827.005 265.072 826.787 264.926C826.568 264.78 826.568 264.707 826.422 264.634C826.203 264.416 826.058 264.27 825.912 264.124C825.62 263.832 825.402 263.541 825.256 263.249C824.891 262.666 824.527 262.156 824.308 261.645C823.725 260.625 823.361 259.677 822.923 258.729C822.195 256.834 821.539 255.011 821.028 253.116C819.935 249.471 819.133 245.826 818.404 242.18C821.611 244.003 824.819 245.753 828.026 247.284C829.629 248.013 831.233 248.742 832.764 249.252C833.565 249.471 834.294 249.762 835.023 249.835C835.388 249.908 835.679 249.908 835.971 249.908C836.116 249.908 836.262 249.835 836.262 249.762C836.335 249.762 836.335 249.689 836.262 249.616C836.262 249.544 836.262 249.544 836.189 249.471C836.044 249.398 836.189 249.398 835.679 249.106C840.198 251.366 842.02 256.834 839.761 261.354C837.501 265.874 832.108 267.696 827.588 265.436Z" fill="#000072"/>
<g opacity="0.2">
<path d="M994.724 392.14C994.724 392.14 985.321 446.816 1014.11 441.276C1014.11 441.276 991.882 476.05 967.391 470.437L994.724 392.14Z" fill="#000072"/>
</g>
<g opacity="0.2">
<path d="M926.864 271.414C926.864 271.414 994.724 358.167 1004.2 286.505L971.181 462.782L960.612 359.553L957.04 316.613L926.864 271.414Z" fill="#000072"/>
</g>
<defs>
<linearGradient id="paint0_linear_394_1450" x1="548.997" y1="1278.28" x2="473.691" y2="323.374" gradientUnits="userSpaceOnUse">
<stop stop-color="white" stop-opacity="0"/>
<stop offset="1" stop-color="white"/>
</linearGradient>
<linearGradient id="paint1_linear_394_1450" x1="316.192" y1="1207.44" x2="245.909" y2="316.213" gradientUnits="userSpaceOnUse">
<stop stop-color="white" stop-opacity="0"/>
<stop offset="1" stop-color="white"/>
</linearGradient>
<linearGradient id="paint2_linear_394_1450" x1="1201.44" y1="1475.06" x2="1131.15" y2="583.836" gradientUnits="userSpaceOnUse">
<stop stop-color="white" stop-opacity="0"/>
<stop offset="1" stop-color="white"/>
</linearGradient>
</defs>
</svg>
